<?xml version="1.0" encoding="utf-8"?>
<!-- Generator: Adobe Illustrator 22.0.1, SVG Export Plug-In . SVG Version: 6.00 Build 0)  -->
<svg version="1.1" id="Layer_1" xmlns="http://www.w3.org/2000/svg" xmlns:xlink="http://www.w3.org/1999/xlink" x="0px" y="0px"
	 viewBox="0 0 784.1 319.4" style="enable-background:new 0 0 784.1 319.4;" xml:space="preserve">
<style type="text/css">
	.st0{fill:#05668D;}
	.st1{fill:none;}
	.st2{fill:#75DDDD;}
	.st3{fill:#028090;}
	.st4{display:none;}
	.st5{display:inline;fill:#028090;}
	.st6{display:inline;}
	.st7{display:inline;fill:#75DDDD;}
</style>
<g>
	<g>
		<g id="XMLID_520_">
			<g id="XMLID_521_">
				<path id="XMLID_562_" class="st0" d="M172.7,202.9l-0.8,7.8l1.6,1.2l5.1,3.8l7.6-3.6l0.3-2.8l0.7-6.5l-1.6-1.2L182,199
					L172.7,202.9z M181.8,209.6c-1.6-0.2-3.3-0.3-5.2-0.5c0.2-1.7,0.4-3.4,0.5-5.3c1.7,0.2,3.4,0.3,5.2,0.5
					C182.2,206.1,182,207.8,181.8,209.6z"/>
				<path id="XMLID_560_" class="st1" d="M121.6,82c-12.7-13.2-32.9-13.5-46-0.9c-12.5,12.1-12.7,32.7-0.5,45.2
					c8,8.2,19.3,11.3,29.8,9.1c-8.4-19.6-15.1-34.7-15.1-34.7s13.6,11.7,31.1,26C133.1,114.7,133.8,94.7,121.6,82z"/>
				<path id="XMLID_554_" class="st1" d="M130.7,133.4c0.4-0.4,0.7-0.8,1.1-1.3c0.1-0.1,0.3-0.3,0.4-0.4c0.3-0.3,0.6-0.7,0.8-1.1
					c0.2-0.2,0.4-0.5,0.6-0.7c0.2-0.2,0.3-0.4,0.5-0.7c0.3-0.4,0.6-0.8,0.8-1.2c0,0,0.1-0.1,0.1-0.1c9.9-15.2,9.3-35.1-1.5-49.9
					c-0.2-0.3-0.5-0.6-0.7-0.9c-0.2-0.2-0.4-0.5-0.5-0.7c-0.9-1.1-1.9-2.2-3-3.3c-8.3-8.3-19.1-12.6-30-12.9c-0.3,0-0.7,0-1,0
					c0,0,0,0-0.1,0c-11.1,0-22.3,4.2-30.8,12.6c-17.2,17.1-17.4,44.9-0.4,62c8.6,8.6,19.7,13,30.9,13.1c0.1,0,0.1,0,0.2,0
					c0.2,0,0.4,0,0.6,0c0.5,0,1,0,1.5,0c0.1,0,0.2,0,0.3,0c0.6,0,1.2-0.1,1.8-0.1c0,0,0,0,0,0c2.4-0.2,4.8-0.7,7.1-1.3
					c-0.9-2.2-1.8-4.3-2.7-6.4c-12,2.8-25.2-0.4-34.6-9.8c-14.6-14.6-14.6-37.8,0-52.3C86.6,63.5,110,63.5,124.4,78
					c14.2,14.3,14.3,37.6,0.2,52c1.7,1.4,3.5,2.9,5.3,4.3c0.2-0.2,0.3-0.3,0.5-0.5C130.5,133.6,130.6,133.5,130.7,133.4z"/>
				<path id="XMLID_551_" class="st0" d="M187.7,226.4l-3.5,1.7l-0.1,1.3l-0.8,8l6.8,5.1l1.3-0.6l6.3-3l1-9.3l-4.4-3.3l-2.3-1.7
					L187.7,226.4z M193.3,236.4c-1.8-0.2-3.5-0.4-5.3-0.6c0.2-1.8,0.4-3.4,0.6-5.3c1.7,0.2,3.4,0.4,5.3,0.6
					C193.7,232.8,193.5,234.5,193.3,236.4z"/>
				<path id="XMLID_549_" class="st0" d="M217.2,228.7l-4.9,2.3l-0.8,8l-0.1,1.4l4.3,3.2l2.4,1.8l0,0l7.2-3.4l1-9.7l-6.4-4.8
					L217.2,228.7z"/>
				<path id="XMLID_548_" class="st2" d="M124.4,78C110,63.5,86.6,63.5,72.2,77.9c-14.6,14.5-14.6,37.8,0,52.3
					c9.4,9.4,22.6,12.6,34.6,9.8c-0.7-1.5-1.3-3-1.9-4.5c-10.4,2.2-21.8-0.9-29.8-9.1c-12.2-12.6-12-33.1,0.5-45.2
					c13.1-12.7,33.3-12.4,46,0.9c12.2,12.7,11.5,32.7-0.7,44.9c1.2,1,2.5,2,3.7,3.1C138.7,115.5,138.7,92.3,124.4,78z"/>
				<path id="XMLID_547_" class="st3" d="M113.7,156.3c-1.5,0.5-3,0.9-4.6,1.2l-3.1,0.7l0,3.1c0,0.2,0,0.3,0,0.5c0,0.4,0,0.9,0,1.5
					c0.7,11.5,2,22,4,32.3c0.5,2.7,1,5.1,1.4,7.3c3.1,15.2,3.6,17.9-0.6,36.5c-2.4,10.6-4.2,19.3-5.3,30.6h-4.4l0-65
					c0.1-13.6,0.2-27,0.3-42.2l0-3.9l-0.3,0v-7c3.3-0.2,6.6-0.8,9.8-1.7c-0.5-1.2-1-2.5-1.6-3.7c-2.3,0.6-4.7,1.1-7.1,1.3
					c0,0,0,0,0,0c-0.6,0.1-1.2,0.1-1.8,0.1c-0.1,0-0.2,0-0.3,0c-0.5,0-1,0-1.5,0c-0.2,0-0.4,0-0.6,0c-0.1,0-0.1,0-0.2,0
					c-11.2-0.1-22.4-4.4-30.9-13.1c-17-17.2-16.9-44.9,0.4-62c8.5-8.4,19.7-12.7,30.8-12.6c0,0,0,0,0.1,0c0.3,0,0.7,0,1,0
					c10.9,0.3,21.7,4.6,30,12.9c1.1,1.1,2,2.2,3,3.3c0.2,0.2,0.4,0.5,0.5,0.7c0.2,0.3,0.5,0.6,0.7,0.9c10.9,14.7,11.4,34.7,1.5,49.9
					c0,0-0.1,0.1-0.1,0.1c-0.3,0.4-0.6,0.8-0.8,1.2c-0.2,0.2-0.3,0.5-0.5,0.7c-0.2,0.2-0.4,0.5-0.6,0.7c-0.3,0.4-0.5,0.7-0.8,1.1
					c-0.1,0.2-0.3,0.3-0.4,0.4c-0.4,0.4-0.7,0.8-1.1,1.3c-0.1,0.1-0.2,0.3-0.4,0.4c-0.2,0.2-0.3,0.3-0.5,0.5c1,0.8,2.1,1.7,3.1,2.5
					c8.4-8.9,13-20.6,13-33C145.9,91,140.8,79,131.8,70c-8.2-8.2-19-13-30.5-13.7v-6.7c23.5,1.3,43.7,17.7,49.6,40.9
					c3.5,13.5,2,26.5-4.4,38.6c-2.3,4.5-5.1,8.4-8.3,11.9c1,0.8,2.1,1.7,3.1,2.5c1.7-1.9,3.3-3.9,4.8-6.1c0,0,0-0.1,0.1-0.1
					c0.3-0.4,0.6-0.9,0.9-1.3c0.4-0.6,0.8-1.3,1.2-1.9c0.1-0.1,0.1-0.2,0.2-0.3c1-1.6,1.9-3.3,2.7-5c0.1-0.2,0.2-0.3,0.2-0.5
					c0.2-0.4,0.4-0.9,0.6-1.3c0.2-0.6,0.5-1.1,0.7-1.7c0,0,0-0.1,0-0.1c2.4-5.9,3.7-12,4-18.3c0-0.1,0-0.2,0-0.3c0-0.6,0-1.3,0-1.9
					c0-0.2,0-0.4,0-0.6c0-0.3,0-0.6,0-0.9c0-0.3,0-0.5,0-0.8c-0.4-12.7-4.8-24.5-12.1-34c-0.2-0.3-0.4-0.6-0.7-0.9
					c-0.2-0.2-0.4-0.5-0.6-0.7c-0.4-0.4-0.7-0.9-1.1-1.3c-0.2-0.2-0.3-0.4-0.5-0.5c-0.4-0.5-0.8-0.9-1.3-1.4
					c-0.1-0.2-0.3-0.3-0.4-0.5c-0.4-0.5-0.9-0.9-1.4-1.4c-0.1-0.1-0.3-0.3-0.4-0.4c-0.5-0.5-1-0.9-1.5-1.3c-0.1-0.1-0.3-0.2-0.4-0.4
					c-0.5-0.4-1-0.9-1.6-1.3c-0.1-0.1-0.3-0.2-0.4-0.3c-0.6-0.4-1.1-0.9-1.7-1.3c-0.1-0.1-0.2-0.1-0.3-0.2c-0.7-0.5-1.3-1-2-1.4
					c0,0,0,0,0,0c-8.8-5.9-19.2-9.3-30.2-9.7c-0.2,0-0.4,0-0.6,0c-0.5,0-0.9,0-1.4,0c-0.2,0-0.4,0-0.6,0
					c-26.1,0.2-49.5,17.9-56.1,43.9c-3.7,14.4-2.2,28.3,4.7,41.5c8.6,16.3,22.1,26.3,40,30.5c0,0.6,0,1.2,0,1.7
					c-0.7,10.7-1.9,21.3-3.9,31.8c-4.2,21.9-5.9,23.3-0.8,45.4c2.7,11.9,4.5,21.5,5.5,33.6h10.3h2.3h9.6c1-12.1,2.8-21.8,5.5-33.6
					c5.1-22.1,3.4-23.4-0.8-45.4c-2-10.5-3.3-21.1-3.9-31.8c0-0.6,0-1.1,0-1.7c0.3-0.1,0.6-0.2,1-0.2c1.5-0.3,2.9-0.7,4.3-1.1
					C114.8,158.8,114.2,157.5,113.7,156.3z"/>
				<path id="XMLID_546_" class="st2" d="M185.8,183.7c-1.9-1.1-4.1-2.5-6.4-4.1c-25.3-17.1-74.8-59.6-74.8-59.6
					s26.9,60.9,37.7,89.7c1,2.7,1.9,5.2,2.6,7.3C154.9,201,168.1,190.4,185.8,183.7z"/>
				<path id="XMLID_544_" class="st0" d="M180.5,225.5c-0.5,4.6-0.9,9-1.4,13.7c3.4,2.6,6.9,5.2,10.5,7.9c4.1-1.9,8-3.7,11.8-5.5
					c0.5-4.7,1-9.2,1.4-13.8c-3.6-2.7-7-5.2-10.4-7.8C188.2,221.8,184.4,223.6,180.5,225.5z"/>
				<path id="XMLID_542_" class="st2" d="M220.4,222.8c-4,1.9-7.9,3.7-11.8,5.5c-0.5,4.7-1,9.2-1.4,13.8c3.5,2.6,6.9,5.1,10.4,7.8
					c3.9-1.8,7.6-3.6,11.4-5.4c0.5-4.8,1-9.6,1.5-14.2C226.9,227.7,223.7,225.3,220.4,222.8z"/>
				<path id="XMLID_539_" class="st0" d="M174.7,224.8c-3.5-2.6-6.8-5.1-10.3-7.7c-3.9,1.8-7.6,3.5-11.5,5.3
					c-0.5,4.8-1,9.5-1.5,14.2c3.6,2.7,6.9,5.1,10.1,7.6c4.1-1.9,8-3.8,11.7-5.5C173.7,233.8,174.2,229.2,174.7,224.8z M170,230.9
					l-0.5,5l-4.7,2.2l-2.8,1.3l-3.3-2.5l-3.2-2.4l0.5-5l0.5-4.7l7.3-3.4l2.4,1.8l4.2,3.2L170,230.9z"/>
				<path id="XMLID_536_" class="st0" d="M192,252.1c-0.5,4.8-1,9.3-1.4,13.8c2.8,2.1,5.5,4.1,8.8,6.6c4.6-2,9.3-4,13.6-5.8
					c0.5-4.5,0.9-8.3,1.3-12.2c-3.4-2.6-6.9-5.2-10.4-7.9C199.7,248.5,195.7,250.3,192,252.1z M210,256.3l-0.8,7.7l-3.4,1.5l-6,2.6
					l-1.2-0.9l-4-3l1-9.3l7.6-3.6l5.9,4.4L210,256.3z"/>
				<path id="XMLID_533_" class="st0" d="M186.1,251.5c-3.5-2.6-7-5.2-10.4-7.8c-4.1,1.9-8,3.8-11.8,5.5c-0.4,4-0.8,7.8-1.3,12.3
					c4,2.8,8.1,5.6,12.1,8.4c3.7-1.7,6.9-3.2,9.9-4.6C185.2,260.5,185.6,256,186.1,251.5z M181,262.7l-1.5,0.7l-4.3,2l-4.3-3l-4-2.8
					l0.8-7.7l7.6-3.6l1.8,1.3l5,3.7L181,262.7z"/>
				<path id="XMLID_530_" class="st0" d="M195.7,215.4c3.5,2.6,6.9,5.2,10.4,7.8c4-1.9,7.9-3.7,11.8-5.5c0.4-4,0.8-7.9,1.3-12.3
					c-4-2.8-8.2-5.7-12.1-8.4c-3.7,1.8-6.9,3.2-10,4.7C196.7,206.3,196.2,210.8,195.7,215.4z M200.9,204.3l5.9-2.7l4,2.7l4.4,3
					l-0.1,1.3l-0.7,6.5l-7.6,3.6l-4.8-3.6l-2-1.5L200.9,204.3z"/>
				<path id="XMLID_528_" class="st0" d="M169,200.2c-0.5,4.6-0.9,8.5-1.3,12.4c3.5,2.6,7,5.2,10.4,7.8c4.1-1.9,8-3.8,11.8-5.5
					c0.5-4.8,1-9.2,1.4-13.8c-2.8-2.1-5.6-4.2-8.8-6.6C178.1,196.3,173.5,198.3,169,200.2z"/>
				<path id="XMLID_527_" class="st0" d="M228.6,221.1c-1.2-2.6-2.5-5.3-3.7-7.9c-0.2,0.1-0.4,0.1-0.5,0.2c-0.2,1.6-0.3,3.2-0.5,4.9
					c1.4,1.1,2.8,2.1,4.2,3.2C228.2,221.3,228.4,221.2,228.6,221.1z"/>
				<path id="XMLID_526_" class="st0" d="M220,255.1c-0.2,1.9-0.4,3.4-0.5,5c0.2,0.1,0.3,0.2,0.5,0.3c1.8-2.4,3.5-4.7,5.3-7.1
					c-0.1-0.1-0.3-0.3-0.4-0.4C223.2,253.5,221.6,254.3,220,255.1z"/>
				<path id="XMLID_525_" class="st0" d="M153.3,245.8c1.3,2.7,2.5,5.4,3.8,8.1c0.2-0.1,0.3-0.2,0.5-0.2c0.2-1.6,0.3-3.2,0.5-5
					c-1.5-1.1-2.9-2.2-4.3-3.3C153.6,245.5,153.5,245.7,153.3,245.8z"/>
				<path id="XMLID_524_" class="st0" d="M157,214.1c1.7-0.8,3.3-1.6,4.8-2.3c0.2-1.9,0.4-3.4,0.5-5c-0.2-0.1-0.3-0.2-0.5-0.3
					c-1.8,2.3-3.5,4.7-5.3,7C156.8,213.8,156.9,214,157,214.1z"/>
				<path id="XMLID_523_" class="st0" d="M197.8,195.1c0-0.1,0-0.3,0-0.4c-1.8-0.2-3.6-0.4-6.2-0.6c1.4,1.1,2.3,1.7,3.2,2.4
					C195.9,196,196.8,195.5,197.8,195.1z"/>
				<path id="XMLID_522_" class="st0" d="M183.5,272.1c2.5,0.3,4.3,0.4,6.7,0.7c-1.3-1-2.1-1.6-3.1-2.4
					C186,270.9,185.1,271.4,183.5,272.1z"/>
			</g>
		</g>
	</g>
	<g>
		<g class="st4">
			<path class="st5" d="M268.6,122.5c0-12.3,9.3-21.3,21.9-21.3c6.1,0,11.6,2,15.3,6.1l-2.8,2.8c-3.4-3.5-7.6-5-12.4-5
				c-10.1,0-17.7,7.4-17.7,17.3c0,9.9,7.6,17.3,17.7,17.3c4.8,0,9-1.5,12.4-5l2.8,2.8c-3.7,4.1-9.2,6.2-15.4,6.2
				C278,143.8,268.6,134.8,268.6,122.5z"/>
			<path class="st5" d="M342.5,139.6v3.8h-29.6v-41.8h28.7v3.8h-24.3v14.9H339v3.8h-21.6v15.5H342.5z"/>
			<path class="st5" d="M385.5,101.6v41.8h-3.6l-26.9-33.9v33.9h-4.4v-41.8h3.6l27,33.9v-33.9H385.5z"/>
			<path class="st5" d="M404.8,105.4h-14.7v-3.8h33.8v3.8h-14.7v38h-4.4V105.4z"/>
			<path class="st5" d="M457.2,143.5l-9.6-13.4c-1.1,0.1-2.2,0.2-3.3,0.2H433v13.3h-4.4v-41.8h15.7c10.6,0,17.1,5.4,17.1,14.3
				c0,6.6-3.5,11.2-9.6,13.1l10.2,14.3H457.2z M456.9,116c0-6.7-4.4-10.5-12.8-10.5H433v21h11.1C452.5,126.4,456.9,122.5,456.9,116z
				"/>
			<path class="st5" d="M499,139.6v3.8h-29.6v-41.8h28.7v3.8h-24.3v14.9h21.6v3.8h-21.6v15.5H499z"/>
			<path class="st5" d="M520.3,101.6h17c13.4,0,22.4,8.6,22.4,20.9c0,12.3-9,20.9-22.4,20.9h-17V101.6z M537.1,139.6
				c11.1,0,18.3-7.1,18.3-17.1s-7.2-17.1-18.3-17.1h-12.4v34.2H537.1z"/>
			<path class="st5" d="M596.8,139.6v3.8h-29.6v-41.8h28.7v3.8h-24.3v14.9h21.6v3.8h-21.6v15.5H596.8z"/>
		</g>
		<g class="st4">
			<g class="st6">
				<path class="st0" d="M286.4,231.7c13,0,22,8.5,22,20.9c0,12.3-9.1,20.9-22.4,20.9h-17.4v-41.8H286.4z M278.1,265.6h8.5
					c7,0,12.1-5.3,12.1-12.9c0-7.7-5.4-13-12.5-13h-8.1V265.6z"/>
				<path class="st0" d="M322.2,239.5v9.1h20.2v7.8h-20.2v9.3h23.1v7.8h-32.5v-41.8h31.9v7.8H322.2z"/>
				<path class="st0" d="M384.1,235.8l-3.6,7.8c-4.4-2.6-9.7-4.3-13-4.3c-3.2,0-5.3,1.1-5.3,3.4c0,7.7,22.3,3.4,22.2,18.5
					c0,8.2-7.1,12.6-16.4,12.6c-6.9,0-13.7-2.6-18.5-6.6l3.8-7.7c4.3,3.8,10.4,6.3,14.8,6.3c3.9,0,6.2-1.4,6.2-4
					c0-7.9-22.3-3.3-22.3-18.1c0-7.6,6.5-12.4,16.2-12.4C374.1,231.3,379.9,233.1,384.1,235.8z"/>
				<path class="st0" d="M448.5,231.7v41.8h-4.2v-33.5l-16.4,28.1h-2.1l-16.4-28v33.3h-4.2v-41.8h3.6l18.2,31l18-31H448.5z"/>
				<path class="st0" d="M459.8,231.7h4.4v41.8h-4.4V231.7z"/>
				<path class="st0" d="M510.4,231.7v41.8h-3.6l-26.9-33.9v33.9h-4.4v-41.8h3.6l27,33.9v-33.9H510.4z"/>
				<path class="st0" d="M521.6,231.7h4.4v41.8h-4.4V231.7z"/>
				<path class="st0" d="M580.7,231.7v41.8h-4.2v-33.5L560,268.2h-2.1l-16.4-28v33.3h-4.2v-41.8h3.6l18.2,31l18-31H580.7z"/>
				<path class="st0" d="M621.5,269.7v3.8h-29.6v-41.8h28.7v3.8h-24.3v14.9H618v3.8h-21.6v15.5H621.5z"/>
				<path class="st0" d="M625.5,268.4l1.7-3.4c3,2.9,8.3,5.1,13.8,5.1c7.8,0,11.2-3.3,11.2-7.4c0-11.5-25.8-4.4-25.8-19.9
					c0-6.2,4.8-11.5,15.4-11.5c4.7,0,9.6,1.4,13,3.7l-1.5,3.5c-3.6-2.3-7.8-3.5-11.5-3.5c-7.6,0-11.1,3.4-11.1,7.6
					c0,11.5,25.8,4.5,25.8,19.8c0,6.2-4.9,11.4-15.6,11.4C634.8,273.9,628.6,271.7,625.5,268.4z"/>
			</g>
		</g>
		<g class="st4">
			<path class="st7" d="M286.4,169.2c13,0,22,8.5,22,20.9c0,12.3-9.1,20.9-22.3,20.9h-17.4v-41.8H286.4z M278.1,203.1h8.5
				c7,0,12.1-5.3,12.1-12.9c0-7.7-5.4-13-12.5-13h-8.1V203.1z"/>
			<path class="st7" d="M323.4,177v9.1h20.2v7.8h-20.2v9.3h23.1v7.8H314v-41.8h31.9v7.8H323.4z"/>
			<path class="st7" d="M372.4,199.1h-0.9h-8.7v12h-9.4v-41.8h18.2c10.9,0,17.2,5.3,17.2,14.5c0,6.5-2.7,11.1-7.8,13.5l8.9,13.8H379
				L372.4,199.1z M371.5,191.2c5.2,0,8.2-2.4,8.2-7.2c0-4.7-3-7-8.2-7h-8.7v14.2H371.5z"/>
			<path class="st7" d="M432.9,211v-28.2l-11.1,24h-6.2l-11.1-24V211H396v-41.8h10.6l12.2,25.6l12.1-25.6h10.5V211H432.9z"/>
			<path class="st7" d="M458.3,202.9L455,211h-9.7l18.2-41.8h9.7l17.9,41.8H481l-3.3-8.1H458.3z M468,179l-6.6,16.3h13.2L468,179z"
				/>
			<path class="st7" d="M508.5,177.2V211h-9.4v-33.8h-12.7v-8h35v8H508.5z"/>
			<path class="st7" d="M565.5,190.1c0,12.1-9.7,21.3-22.5,21.3s-22.5-9.2-22.5-21.3c0-12.2,9.7-21.2,22.5-21.2
				S565.5,178,565.5,190.1z M530.2,190.1c0,7.4,5.9,13.1,12.9,13.1c7,0,12.7-5.7,12.7-13.1c0-7.3-5.7-13-12.7-13
				C536.1,177.1,530.2,182.8,530.2,190.1z"/>
			<path class="st7" d="M598.4,202.8v8.2h-27.4v-41.8h9.4v33.6H598.4z"/>
			<path class="st7" d="M645.4,190.1c0,12.1-9.7,21.3-22.5,21.3c-12.8,0-22.5-9.2-22.5-21.3c0-12.2,9.7-21.2,22.5-21.2
				C635.7,168.9,645.4,178,645.4,190.1z M610.1,190.1c0,7.4,5.9,13.1,12.9,13.1c7,0,12.7-5.7,12.7-13.1c0-7.3-5.7-13-12.7-13
				C616,177.1,610.1,182.8,610.1,190.1z"/>
			<path class="st7" d="M688.2,189.9V206c-4.4,3.2-11.2,5.4-17,5.4c-12.7,0-22.3-9.2-22.3-21.3c0-12.1,9.8-21.2,22.8-21.2
				c6.2,0,12.5,2.4,16.8,6.1l-5.3,6.8c-3.1-2.9-7.4-4.7-11.5-4.7c-7.4,0-13.1,5.7-13.1,13c0,7.4,5.8,13.1,13.2,13.1
				c2.5,0,5.5-0.9,8.2-2.3v-11H688.2z"/>
			<path class="st7" d="M693.9,211v-41.8h9.4V211H693.9z"/>
			<path class="st7" d="M721.4,177v9.1h20.2v7.8h-20.2v9.3h23.1v7.8H712v-41.8h31.9v7.8H721.4z"/>
		</g>
	</g>
</g>
<g>
	<g>
		<path class="st3" d="M301.7,117.4l-10.3,0.6c-0.1-5.9-2.5-8.9-6.9-8.9c-5.1,0-7.7,4.6-7.7,13.7c0,5.3,0.7,8.8,2.1,10.7
			c1.4,1.9,3.3,2.8,5.9,2.8c4.1,0,6.6-2.6,7.5-7.9l9.5,0.6c-0.6,5-2.5,8.8-5.6,11.5c-3.1,2.6-7,3.9-11.5,3.9
			c-5.6,0-10.1-1.9-13.6-5.8c-3.5-3.8-5.2-9.1-5.2-15.9c0-6.3,1.7-11.5,5-15.6c3.4-4,8-6.1,13.8-6.1
			C294.8,101.2,300.4,106.6,301.7,117.4z"/>
		<path class="st3" d="M341.1,109.8h-20v8.6h15.7v7.9h-15.7v9.2h20v8.3h-30v-42h30V109.8z"/>
		<path class="st3" d="M383.1,101.8v42h-8.4l-16.4-28.4c0,0.7,0,1.2,0.1,1.4c0.1,0.7,0.1,1.3,0.1,1.8v25.1h-7.7v-42h10.6l14.3,24.8
			c-0.1-1.2-0.2-2.2-0.2-2.8v-22H383.1z"/>
		<path class="st3" d="M422,101.8v8.3h-10.4v33.7h-10v-33.7h-10.5v-8.3H422z"/>
		<path class="st3" d="M439.9,127.2v16.6h-9.9v-42h18.5c3.4,0,6.1,0.4,8.2,1.2c2.1,0.8,3.8,2.2,5.1,4.3s2,4.5,2,7
			c0,5-2.4,8.7-7.3,10.9l7.8,18.6h-10.9l-6.4-16.6H439.9z M439.9,109.3V120h6c2,0,3.4-0.1,4.3-0.4c0.9-0.3,1.7-0.9,2.4-1.8
			c0.7-1,1-2,1-3.3c0-1.2-0.3-2.2-1-3.1c-0.7-0.9-1.5-1.5-2.3-1.7c-0.8-0.2-2.4-0.3-4.6-0.3H439.9z"/>
		<path class="st3" d="M505.1,109.8h-20v8.6h15.7v7.9h-15.7v9.2h20v8.3h-30v-42h30V109.8z"/>
		<path class="st3" d="M534.3,101.8h12.8c5.2,0,9.1,0.7,11.7,2.2c2.6,1.4,4.9,3.7,6.9,6.9s3,7.1,3,11.9c0,6-1.8,11-5.3,15.1
			c-3.5,4-8.4,6-14.7,6h-14.4V101.8z M544,109.5v26.4h4.1c3.6,0,6.2-1.3,8-4c1.7-2.7,2.6-5.8,2.6-9.4c0-2.5-0.5-4.9-1.5-7.1
			c-1-2.2-2.2-3.7-3.7-4.6s-3.2-1.3-5.3-1.3H544z"/>
		<path class="st3" d="M609,109.8h-20v8.6h15.7v7.9H589v9.2h20v8.3h-30v-42h30V109.8z"/>
	</g>
</g>
<g>
	<g>
		<path class="st2" d="M267.8,167h12.8c5.2,0,9.1,0.7,11.7,2.2c2.6,1.4,4.9,3.7,6.9,6.9s3,7.1,3,11.9c0,6-1.8,11-5.3,15.1
			c-3.5,4-8.4,6-14.7,6h-14.4V167z M277.5,174.8v26.4h4.1c3.6,0,6.2-1.3,8-4c1.7-2.7,2.6-5.8,2.6-9.4c0-2.5-0.5-4.9-1.5-7.1
			c-1-2.2-2.2-3.7-3.7-4.6s-3.2-1.3-5.3-1.3H277.5z"/>
		<path class="st2" d="M342.5,175h-20v8.6h15.7v7.9h-15.7v9.2h20v8.3h-30v-42h30V175z"/>
		<path class="st2" d="M362.1,192.4V209h-9.9v-42h18.5c3.4,0,6.1,0.4,8.2,1.2c2.1,0.8,3.8,2.2,5.1,4.3s2,4.5,2,7
			c0,5-2.4,8.7-7.3,10.9l7.8,18.6h-10.9l-6.4-16.6H362.1z M362.1,174.5v10.7h6c2,0,3.4-0.1,4.3-0.4c0.9-0.3,1.7-0.9,2.4-1.8
			c0.7-1,1-2,1-3.3c0-1.2-0.3-2.2-1-3.1c-0.7-0.9-1.5-1.5-2.3-1.7c-0.8-0.2-2.4-0.3-4.6-0.3H362.1z"/>
		<path class="st2" d="M415.9,209l-10.4-34.2V209h-8.2v-42h15.3l7.4,25.1l7.8-25.1h15.4v42h-9.9v-34.2L422.7,209H415.9z"/>
		<path class="st2" d="M475.9,167l13.1,42h-10.6l-2.6-8.6h-13.6l-2.6,8.6h-8.6l13.5-42H475.9z M464.7,192.6h8.9l-4.4-14.7
			L464.7,192.6z"/>
		<path class="st2" d="M520.8,167v8.3h-10.4V209h-10v-33.7H490V167H520.8z"/>
		<path class="st2" d="M544.5,209.7c-5.7,0-10-2.1-13.1-6.4c-3.1-4.2-4.6-9.4-4.6-15.4c0-6.1,1.6-11.2,4.7-15.4s7.6-6.2,13.4-6.2
			c5.9,0,10.3,2.2,13.3,6.6c3,4.4,4.5,9.4,4.5,15c0,6.1-1.5,11.2-4.6,15.4C554.9,207.6,550.4,209.7,544.5,209.7z M544.8,174.4
			c-5.2,0-7.7,4.5-7.7,13.6c0,9.1,2.6,13.6,7.7,13.6c5,0,7.5-4.5,7.5-13.6C552.3,179,549.8,174.4,544.8,174.4z"/>
		<path class="st2" d="M582.8,200.7h16.7v8.3h-26.7v-42h10V200.7z"/>
		<path class="st2" d="M623.5,209.7c-5.7,0-10-2.1-13.1-6.4c-3.1-4.2-4.6-9.4-4.6-15.4c0-6.1,1.6-11.2,4.7-15.4s7.6-6.2,13.4-6.2
			c5.9,0,10.3,2.2,13.3,6.6c3,4.4,4.5,9.4,4.5,15c0,6.1-1.5,11.2-4.6,15.4C633.9,207.6,629.4,209.7,623.5,209.7z M623.7,174.4
			c-5.2,0-7.7,4.5-7.7,13.6c0,9.1,2.6,13.6,7.7,13.6c5,0,7.5-4.5,7.5-13.6C631.2,179,628.7,174.4,623.7,174.4z"/>
		<path class="st2" d="M684.5,186.6V209H680c-0.3-1.6-0.8-3.2-1.4-4.8c-3,3.7-6.8,5.5-11.4,5.5c-5.5,0-9.7-2-12.8-5.9
			c-3-3.9-4.6-9-4.6-15.2c0-6.7,1.6-12.1,4.9-16.1c3.3-4.1,7.7-6.1,13.2-6.1c4.7,0,8.4,1.3,11.3,3.9c2.9,2.6,4.6,6.1,5.3,10.5
			l-9.4,1.2c-0.8-5.1-3.2-7.6-7.2-7.6c-2.7,0-4.7,1.2-6,3.6c-1.4,2.4-2,5.8-2,10.3c0,4.3,0.7,7.6,2.2,9.9c1.5,2.3,3.6,3.4,6.3,3.4
			c1.8,0,3.3-0.6,4.7-1.7c1.4-1.1,2.1-3,2.1-5.5h-7.9v-7.8H684.5z"/>
		<path class="st2" d="M705.8,167v42H696v-42H705.8z"/>
		<path class="st2" d="M748,175h-20v8.6h15.7v7.9H728v9.2h20v8.3h-30v-42h30V175z"/>
	</g>
</g>
<g>
	<g>
		<path class="st0" d="M267.8,231.9h12.8c5.2,0,9.1,0.7,11.7,2.2c2.6,1.4,4.9,3.7,6.9,6.9s3,7.1,3,11.9c0,6-1.8,11-5.3,15.1
			c-3.5,4-8.4,6-14.7,6h-14.4V231.9z M277.5,239.6V266h4.1c3.6,0,6.2-1.3,8-4c1.7-2.7,2.6-5.8,2.6-9.4c0-2.5-0.5-4.9-1.5-7.1
			c-1-2.2-2.2-3.7-3.7-4.6s-3.2-1.3-5.3-1.3H277.5z"/>
		<path class="st0" d="M342.5,239.9h-20v8.6h15.7v7.9h-15.7v9.2h20v8.3h-30v-42h30V239.9z"/>
		<path class="st0" d="M381.2,241.1l-8.4,2.8c-1.1-3.3-3.5-5-7.2-5c-3.9,0-5.8,1.3-5.8,3.8c0,1,0.4,1.9,1.1,2.6
			c0.7,0.7,2.4,1.3,4.9,1.8c4.3,0.9,7.4,1.7,9.4,2.6c2,0.9,3.7,2.3,5,4.3c1.4,2,2,4.1,2,6.6c0,3.8-1.5,7.1-4.4,9.8
			c-2.9,2.8-7.2,4.2-13,4.2c-4.3,0-8-1-11-2.9c-3-2-5-4.9-6-8.7l9.1-2.1c1,3.9,3.9,5.9,8.5,5.9c2.3,0,3.9-0.4,5-1.3
			c1.1-0.9,1.7-1.9,1.7-3.1c0-1.2-0.5-2.2-1.5-2.9c-1-0.7-2.9-1.3-5.8-1.9c-5.3-1.1-9.2-2.6-11.4-4.5c-2.3-1.9-3.4-4.7-3.4-8.4
			c0-3.7,1.4-6.9,4.1-9.4c2.7-2.6,6.4-3.8,11-3.8C373.5,231.3,378.8,234.6,381.2,241.1z"/>
		<path class="st0" d="M430.6,273.9l-10.4-34.2v34.2H412v-42h15.3l7.4,25.1l7.8-25.1h15.4v42h-9.9v-34.2l-10.6,34.2H430.6z"/>
		<path class="st0" d="M479.8,231.9v42H470v-42H479.8z"/>
		<path class="st0" d="M524.3,231.9v42h-8.4l-16.4-28.4c0,0.7,0,1.2,0.1,1.4c0.1,0.7,0.1,1.3,0.1,1.8v25.1H492v-42h10.6l14.3,24.8
			c-0.1-1.2-0.2-2.2-0.2-2.8v-22H524.3z"/>
		<path class="st0" d="M546.3,231.9v42h-9.8v-42H546.3z"/>
		<path class="st0" d="M577.2,273.9l-10.4-34.2v34.2h-8.2v-42h15.3l7.4,25.1l7.8-25.1h15.4v42h-9.9v-34.2l-10.6,34.2H577.2z"/>
		<path class="st0" d="M646.5,239.9h-20v8.6h15.7v7.9h-15.7v9.2h20v8.3h-30v-42h30V239.9z"/>
		<path class="st0" d="M685.2,241.1l-8.4,2.8c-1.1-3.3-3.5-5-7.2-5c-3.9,0-5.8,1.3-5.8,3.8c0,1,0.4,1.9,1.1,2.6
			c0.7,0.7,2.4,1.3,4.9,1.8c4.3,0.9,7.4,1.7,9.4,2.6c2,0.9,3.7,2.3,5,4.3c1.4,2,2,4.1,2,6.6c0,3.8-1.5,7.1-4.4,9.8
			c-2.9,2.8-7.2,4.2-13,4.2c-4.3,0-8-1-11-2.9c-3-2-5-4.9-6-8.7l9.1-2.1c1,3.9,3.9,5.9,8.5,5.9c2.3,0,3.9-0.4,5-1.3
			c1.1-0.9,1.7-1.9,1.7-3.1c0-1.2-0.5-2.2-1.5-2.9c-1-0.7-2.9-1.3-5.8-1.9c-5.3-1.1-9.2-2.6-11.4-4.5c-2.3-1.9-3.4-4.7-3.4-8.4
			c0-3.7,1.4-6.9,4.1-9.4c2.7-2.6,6.4-3.8,11-3.8C677.5,231.3,682.8,234.6,685.2,241.1z"/>
	</g>
</g>
</svg>
