<svg xmlns="http://www.w3.org/2000/svg" xmlns:xlink="http://www.w3.org/1999/xlink" version="1.1" style="" xml:space="preserve" width="191" height="228"><rect id="backgroundrect" width="100%" height="100%" x="0" y="0" fill="none" stroke="none"/>
<style type="text/css">
	.st0{fill:#05668D;}
	.st1{fill:none;}
	.st2{fill:#75DDDD;}
	.st3{fill:#028090;}
	.st4{display:none;}
	.st5{display:inline;fill:#028090;}
	.st6{display:inline;}
	.st7{display:inline;fill:#75DDDD;}
</style>

<g class="currentLayer" style=""><title>Layer 1</title><g id="svg_1" class="">
	<g id="svg_2">
		<g id="XMLID_520_">
			<g id="XMLID_521_">
				<path id="XMLID_562_" class="st0" d="M133.26559753417968,157.5000213623047 l-0.8,7.8 l1.6,1.2 l5.1,3.8 l7.6,-3.6 l0.30000000000000004,-2.8 l0.7000000000000001,-6.5 l-1.6,-1.2 L142.5655975341797,153.6000213623047 L133.26559753417968,157.5000213623047 zM142.3655975341797,164.20002136230468 c-1.6,-0.2 -3.3,-0.30000000000000004 -5.2,-0.5 c0.2,-1.7000000000000002 0.4,-3.4 0.5,-5.3 c1.7000000000000002,0.2 3.4,0.30000000000000004 5.2,0.5 C142.76559753417968,160.70002136230468 142.5655975341797,162.4000213623047 142.3655975341797,164.20002136230468 z"/>
				<path id="XMLID_560_" class="st1" d="M82.16559753417968,36.60002136230469 c-12.7,-13.2 -32.9,-13.5 -46,-0.9 c-12.5,12.1 -12.7,32.7 -0.5,45.2 c8,8.2 19.3,11.3 29.8,9.1 c-8.4,-19.6 -15.1,-34.7 -15.1,-34.7 s13.6,11.7 31.1,26 C93.66559753417968,69.30002136230469 94.3655975341797,49.30002136230469 82.16559753417968,36.60002136230469 z"/>
				<path id="XMLID_554_" class="st1" d="M91.26559753417968,88.0000213623047 c0.4,-0.4 0.7000000000000001,-0.8 1.1,-1.3 c0.1,-0.1 0.30000000000000004,-0.30000000000000004 0.4,-0.4 c0.30000000000000004,-0.30000000000000004 0.6000000000000001,-0.7000000000000001 0.8,-1.1 c0.2,-0.2 0.4,-0.5 0.6000000000000001,-0.7000000000000001 c0.2,-0.2 0.30000000000000004,-0.4 0.5,-0.7000000000000001 c0.30000000000000004,-0.4 0.6000000000000001,-0.8 0.8,-1.2 c0,0 0.1,-0.1 0.1,-0.1 c9.9,-15.2 9.3,-35.1 -1.5,-49.9 c-0.2,-0.30000000000000004 -0.5,-0.6000000000000001 -0.7000000000000001,-0.9 c-0.2,-0.2 -0.4,-0.5 -0.5,-0.7000000000000001 c-0.9,-1.1 -1.9,-2.2 -3,-3.3 c-8.3,-8.3 -19.1,-12.6 -30,-12.9 c-0.30000000000000004,0 -0.7000000000000001,0 -1,0 c0,0 0,0 -0.1,0 c-11.1,0 -22.3,4.2 -30.8,12.6 c-17.2,17.1 -17.4,44.9 -0.4,62 c8.6,8.6 19.7,13 30.9,13.1 c0.1,0 0.1,0 0.2,0 c0.2,0 0.4,0 0.6000000000000001,0 c0.5,0 1,0 1.5,0 c0.1,0 0.2,0 0.30000000000000004,0 c0.6000000000000001,0 1.2,-0.1 1.8,-0.1 c0,0 0,0 0,0 c2.4,-0.2 4.8,-0.7000000000000001 7.1,-1.3 c-0.9,-2.2 -1.8,-4.3 -2.7,-6.4 c-12,2.8 -25.2,-0.4 -34.6,-9.8 c-14.6,-14.6 -14.6,-37.8 0,-52.3 C47.16559753417968,18.100021362304688 70.56559753417969,18.100021362304688 84.9655975341797,32.60002136230469 c14.2,14.3 14.3,37.6 0.2,52 c1.7000000000000002,1.4 3.5,2.9 5.3,4.3 c0.2,-0.2 0.30000000000000004,-0.30000000000000004 0.5,-0.5 C91.06559753417969,88.20002136230468 91.16559753417968,88.10002136230469 91.26559753417968,88.0000213623047 z"/>
				<path id="XMLID_551_" class="st0" d="M148.26559753417968,181.0000213623047 l-3.5,1.7000000000000002 l-0.1,1.3 l-0.8,8 l6.8,5.1 l1.3,-0.6000000000000001 l6.3,-3 l1,-9.3 l-4.4,-3.3 l-2.3,-1.7000000000000002 L148.26559753417968,181.0000213623047 zM153.8655975341797,191.0000213623047 c-1.8,-0.2 -3.5,-0.4 -5.3,-0.6000000000000001 c0.2,-1.8 0.4,-3.4 0.6000000000000001,-5.3 c1.7000000000000002,0.2 3.4,0.4 5.3,0.6000000000000001 C154.26559753417968,187.4000213623047 154.0655975341797,189.1000213623047 153.8655975341797,191.0000213623047 z"/>
				<path id="XMLID_549_" class="st0" d="M177.76559753417968,183.30002136230468 l-4.9,2.3 l-0.8,8 l-0.1,1.4 l4.3,3.2 l2.4,1.8 l0,0 l7.2,-3.4 l1,-9.7 l-6.4,-4.8 L177.76559753417968,183.30002136230468 z"/>
				<path id="XMLID_548_" class="st2" d="M84.9655975341797,32.60002136230469 C70.56559753417969,18.100021362304688 47.16559753417968,18.100021362304688 32.76559753417969,32.50002136230469 c-14.6,14.5 -14.6,37.8 0,52.3 c9.4,9.4 22.6,12.6 34.6,9.8 c-0.7000000000000001,-1.5 -1.3,-3 -1.9,-4.5 c-10.4,2.2 -21.8,-0.9 -29.8,-9.1 c-12.2,-12.6 -12,-33.1 0.5,-45.2 c13.1,-12.7 33.3,-12.4 46,0.9 c12.2,12.7 11.5,32.7 -0.7000000000000001,44.9 c1.2,1 2.5,2 3.7,3.1 C99.26559753417968,70.10002136230469 99.26559753417968,46.900021362304685 84.9655975341797,32.60002136230469 z"/>
				<path id="XMLID_547_" class="st3" d="M74.26559753417969,110.9000213623047 c-1.5,0.5 -3,0.9 -4.6,1.2 l-3.1,0.7000000000000001 l0,3.1 c0,0.2 0,0.30000000000000004 0,0.5 c0,0.4 0,0.9 0,1.5 c0.7000000000000001,11.5 2,22 4,32.3 c0.5,2.7 1,5.1 1.4,7.3 c3.1,15.2 3.6,17.9 -0.6000000000000001,36.5 c-2.4,10.6 -4.2,19.3 -5.3,30.6 h-4.4 l0,-65 c0.1,-13.6 0.2,-27 0.30000000000000004,-42.2 l0,-3.9 l-0.30000000000000004,0 v-7 c3.3,-0.2 6.6,-0.8 9.8,-1.7000000000000002 c-0.5,-1.2 -1,-2.5 -1.6,-3.7 c-2.3,0.6000000000000001 -4.7,1.1 -7.1,1.3 c0,0 0,0 0,0 c-0.6000000000000001,0.1 -1.2,0.1 -1.8,0.1 c-0.1,0 -0.2,0 -0.30000000000000004,0 c-0.5,0 -1,0 -1.5,0 c-0.2,0 -0.4,0 -0.6000000000000001,0 c-0.1,0 -0.1,0 -0.2,0 c-11.2,-0.1 -22.4,-4.4 -30.9,-13.1 c-17,-17.2 -16.9,-44.9 0.4,-62 c8.5,-8.4 19.7,-12.7 30.8,-12.6 c0,0 0,0 0.1,0 c0.30000000000000004,0 0.7000000000000001,0 1,0 c10.9,0.30000000000000004 21.7,4.6 30,12.9 c1.1,1.1 2,2.2 3,3.3 c0.2,0.2 0.4,0.5 0.5,0.7000000000000001 c0.2,0.30000000000000004 0.5,0.6000000000000001 0.7000000000000001,0.9 c10.9,14.7 11.4,34.7 1.5,49.9 c0,0 -0.1,0.1 -0.1,0.1 c-0.30000000000000004,0.4 -0.6000000000000001,0.8 -0.8,1.2 c-0.2,0.2 -0.30000000000000004,0.5 -0.5,0.7000000000000001 c-0.2,0.2 -0.4,0.5 -0.6000000000000001,0.7000000000000001 c-0.30000000000000004,0.4 -0.5,0.7000000000000001 -0.8,1.1 c-0.1,0.2 -0.30000000000000004,0.30000000000000004 -0.4,0.4 c-0.4,0.4 -0.7000000000000001,0.8 -1.1,1.3 c-0.1,0.1 -0.2,0.30000000000000004 -0.4,0.4 c-0.2,0.2 -0.30000000000000004,0.30000000000000004 -0.5,0.5 c1,0.8 2.1,1.7000000000000002 3.1,2.5 c8.4,-8.9 13,-20.6 13,-33 C106.4655975341797,45.60002136230469 101.3655975341797,33.60002136230469 92.3655975341797,24.600021362304688 c-8.2,-8.2 -19,-13 -30.5,-13.7 v-6.7 c23.5,1.3 43.7,17.7 49.6,40.9 c3.5,13.5 2,26.5 -4.4,38.6 c-2.3,4.5 -5.1,8.4 -8.3,11.9 c1,0.8 2.1,1.7000000000000002 3.1,2.5 c1.7000000000000002,-1.9 3.3,-3.9 4.8,-6.1 c0,0 0,-0.1 0.1,-0.1 c0.30000000000000004,-0.4 0.6000000000000001,-0.9 0.9,-1.3 c0.4,-0.6000000000000001 0.8,-1.3 1.2,-1.9 c0.1,-0.1 0.1,-0.2 0.2,-0.30000000000000004 c1,-1.6 1.9,-3.3 2.7,-5 c0.1,-0.2 0.2,-0.30000000000000004 0.2,-0.5 c0.2,-0.4 0.4,-0.9 0.6000000000000001,-1.3 c0.2,-0.6000000000000001 0.5,-1.1 0.7000000000000001,-1.7000000000000002 c0,0 0,-0.1 0,-0.1 c2.4,-5.9 3.7,-12 4,-18.3 c0,-0.1 0,-0.2 0,-0.30000000000000004 c0,-0.6000000000000001 0,-1.3 0,-1.9 c0,-0.2 0,-0.4 0,-0.6000000000000001 c0,-0.30000000000000004 0,-0.6000000000000001 0,-0.9 c0,-0.30000000000000004 0,-0.5 0,-0.8 c-0.4,-12.7 -4.8,-24.5 -12.1,-34 c-0.2,-0.30000000000000004 -0.4,-0.6000000000000001 -0.7000000000000001,-0.9 c-0.2,-0.2 -0.4,-0.5 -0.6000000000000001,-0.7000000000000001 c-0.4,-0.4 -0.7000000000000001,-0.9 -1.1,-1.3 c-0.2,-0.2 -0.30000000000000004,-0.4 -0.5,-0.5 c-0.4,-0.5 -0.8,-0.9 -1.3,-1.4 c-0.1,-0.2 -0.30000000000000004,-0.30000000000000004 -0.4,-0.5 c-0.4,-0.5 -0.9,-0.9 -1.4,-1.4 c-0.1,-0.1 -0.30000000000000004,-0.30000000000000004 -0.4,-0.4 c-0.5,-0.5 -1,-0.9 -1.5,-1.3 c-0.1,-0.1 -0.30000000000000004,-0.2 -0.4,-0.4 c-0.5,-0.4 -1,-0.9 -1.6,-1.3 c-0.1,-0.1 -0.30000000000000004,-0.2 -0.4,-0.30000000000000004 c-0.6000000000000001,-0.4 -1.1,-0.9 -1.7000000000000002,-1.3 c-0.1,-0.1 -0.2,-0.1 -0.30000000000000004,-0.2 c-0.7000000000000001,-0.5 -1.3,-1 -2,-1.4 c0,0 0,0 0,0 c-8.8,-5.9 -19.2,-9.3 -30.2,-9.7 c-0.2,0 -0.4,0 -0.6000000000000001,0 c-0.5,0 -0.9,0 -1.4,0 c-0.2,0 -0.4,0 -0.6000000000000001,0 c-26.1,0.2 -49.5,17.9 -56.1,43.9 c-3.7,14.4 -2.2,28.3 4.7,41.5 c8.6,16.3 22.1,26.3 40,30.5 c0,0.6000000000000001 0,1.2 0,1.7000000000000002 c-0.7000000000000001,10.7 -1.9,21.3 -3.9,31.8 c-4.2,21.9 -5.9,23.3 -0.8,45.4 c2.7,11.9 4.5,21.5 5.5,33.6 h10.3 h2.3 h9.6 c1,-12.1 2.8,-21.8 5.5,-33.6 c5.1,-22.1 3.4,-23.4 -0.8,-45.4 c-2,-10.5 -3.3,-21.1 -3.9,-31.8 c0,-0.6000000000000001 0,-1.1 0,-1.7000000000000002 c0.30000000000000004,-0.1 0.6000000000000001,-0.2 1,-0.2 c1.5,-0.30000000000000004 2.9,-0.7000000000000001 4.3,-1.1 C75.36559753417968,113.4000213623047 74.76559753417969,112.10002136230469 74.26559753417969,110.9000213623047 z"/>
				<path id="XMLID_546_" class="st2" d="M146.3655975341797,138.30002136230468 c-1.9,-1.1 -4.1,-2.5 -6.4,-4.1 c-25.3,-17.1 -74.8,-59.6 -74.8,-59.6 s26.9,60.9 37.7,89.7 c1,2.7 1.9,5.2 2.6,7.3 C115.4655975341797,155.6000213623047 128.66559753417968,145.0000213623047 146.3655975341797,138.30002136230468 z"/>
				<path id="XMLID_544_" class="st0" d="M141.0655975341797,180.1000213623047 c-0.5,4.6 -0.9,9 -1.4,13.7 c3.4,2.6 6.9,5.2 10.5,7.9 c4.1,-1.9 8,-3.7 11.8,-5.5 c0.5,-4.7 1,-9.2 1.4,-13.8 c-3.6,-2.7 -7,-5.2 -10.4,-7.8 C148.76559753417968,176.4000213623047 144.9655975341797,178.20002136230468 141.0655975341797,180.1000213623047 z"/>
				<path id="XMLID_542_" class="st2" d="M180.9655975341797,177.4000213623047 c-4,1.9 -7.9,3.7 -11.8,5.5 c-0.5,4.7 -1,9.2 -1.4,13.8 c3.5,2.6 6.9,5.1 10.4,7.8 c3.9,-1.8 7.6,-3.6 11.4,-5.4 c0.5,-4.8 1,-9.6 1.5,-14.2 C187.4655975341797,182.30002136230468 184.26559753417968,179.9000213623047 180.9655975341797,177.4000213623047 z"/>
				<path id="XMLID_539_" class="st0" d="M135.26559753417968,179.4000213623047 c-3.5,-2.6 -6.8,-5.1 -10.3,-7.7 c-3.9,1.8 -7.6,3.5 -11.5,5.3 c-0.5,4.8 -1,9.5 -1.5,14.2 c3.6,2.7 6.9,5.1 10.1,7.6 c4.1,-1.9 8,-3.8 11.7,-5.5 C134.26559753417968,188.4000213623047 134.76559753417968,183.80002136230468 135.26559753417968,179.4000213623047 zM130.5655975341797,185.5000213623047 l-0.5,5 l-4.7,2.2 l-2.8,1.3 l-3.3,-2.5 l-3.2,-2.4 l0.5,-5 l0.5,-4.7 l7.3,-3.4 l2.4,1.8 l4.2,3.2 L130.5655975341797,185.5000213623047 z"/>
				<path id="XMLID_536_" class="st0" d="M152.5655975341797,206.70002136230468 c-0.5,4.8 -1,9.3 -1.4,13.8 c2.8,2.1 5.5,4.1 8.8,6.6 c4.6,-2 9.3,-4 13.6,-5.8 c0.5,-4.5 0.9,-8.3 1.3,-12.2 c-3.4,-2.6 -6.9,-5.2 -10.4,-7.9 C160.26559753417968,203.1000213623047 156.26559753417968,204.9000213623047 152.5655975341797,206.70002136230468 zM170.5655975341797,210.9000213623047 l-0.8,7.7 l-3.4,1.5 l-6,2.6 l-1.2,-0.9 l-4,-3 l1,-9.3 l7.6,-3.6 l5.9,4.4 L170.5655975341797,210.9000213623047 z"/>
				<path id="XMLID_533_" class="st0" d="M146.66559753417968,206.1000213623047 c-3.5,-2.6 -7,-5.2 -10.4,-7.8 c-4.1,1.9 -8,3.8 -11.8,5.5 c-0.4,4 -0.8,7.8 -1.3,12.3 c4,2.8 8.1,5.6 12.1,8.4 c3.7,-1.7000000000000002 6.9,-3.2 9.9,-4.6 C145.76559753417968,215.1000213623047 146.16559753417968,210.6000213623047 146.66559753417968,206.1000213623047 zM141.5655975341797,217.30002136230468 l-1.5,0.7000000000000001 l-4.3,2 l-4.3,-3 l-4,-2.8 l0.8,-7.7 l7.6,-3.6 l1.8,1.3 l5,3.7 L141.5655975341797,217.30002136230468 z"/>
				<path id="XMLID_530_" class="st0" d="M156.26559753417968,170.0000213623047 c3.5,2.6 6.9,5.2 10.4,7.8 c4,-1.9 7.9,-3.7 11.8,-5.5 c0.4,-4 0.8,-7.9 1.3,-12.3 c-4,-2.8 -8.2,-5.7 -12.1,-8.4 c-3.7,1.8 -6.9,3.2 -10,4.7 C157.26559753417968,160.9000213623047 156.76559753417968,165.4000213623047 156.26559753417968,170.0000213623047 zM161.4655975341797,158.9000213623047 l5.9,-2.7 l4,2.7 l4.4,3 l-0.1,1.3 l-0.7000000000000001,6.5 l-7.6,3.6 l-4.8,-3.6 l-2,-1.5 L161.4655975341797,158.9000213623047 z"/>
				<path id="XMLID_528_" class="st0" d="M129.5655975341797,154.80002136230468 c-0.5,4.6 -0.9,8.5 -1.3,12.4 c3.5,2.6 7,5.2 10.4,7.8 c4.1,-1.9 8,-3.8 11.8,-5.5 c0.5,-4.8 1,-9.2 1.4,-13.8 c-2.8,-2.1 -5.6,-4.2 -8.8,-6.6 C138.66559753417968,150.9000213623047 134.0655975341797,152.9000213623047 129.5655975341797,154.80002136230468 z"/>
				<path id="XMLID_527_" class="st0" d="M189.16559753417968,175.70002136230468 c-1.2,-2.6 -2.5,-5.3 -3.7,-7.9 c-0.2,0.1 -0.4,0.1 -0.5,0.2 c-0.2,1.6 -0.30000000000000004,3.2 -0.5,4.9 c1.4,1.1 2.8,2.1 4.2,3.2 C188.76559753417968,175.9000213623047 188.9655975341797,175.80002136230468 189.16559753417968,175.70002136230468 z"/>
				<path id="XMLID_526_" class="st0" d="M180.5655975341797,209.70002136230468 c-0.2,1.9 -0.4,3.4 -0.5,5 c0.2,0.1 0.30000000000000004,0.2 0.5,0.30000000000000004 c1.8,-2.4 3.5,-4.7 5.3,-7.1 c-0.1,-0.1 -0.30000000000000004,-0.30000000000000004 -0.4,-0.4 C183.76559753417968,208.1000213623047 182.16559753417968,208.9000213623047 180.5655975341797,209.70002136230468 z"/>
				<path id="XMLID_525_" class="st0" d="M113.8655975341797,200.4000213623047 c1.3,2.7 2.5,5.4 3.8,8.1 c0.2,-0.1 0.30000000000000004,-0.2 0.5,-0.2 c0.2,-1.6 0.30000000000000004,-3.2 0.5,-5 c-1.5,-1.1 -2.9,-2.2 -4.3,-3.3 C114.16559753417968,200.1000213623047 114.06559753417969,200.30002136230468 113.8655975341797,200.4000213623047 z"/>
				<path id="XMLID_524_" class="st0" d="M117.56559753417969,168.70002136230468 c1.7000000000000002,-0.8 3.3,-1.6 4.8,-2.3 c0.2,-1.9 0.4,-3.4 0.5,-5 c-0.2,-0.1 -0.30000000000000004,-0.2 -0.5,-0.30000000000000004 c-1.8,2.3 -3.5,4.7 -5.3,7 C117.3655975341797,168.4000213623047 117.4655975341797,168.6000213623047 117.56559753417969,168.70002136230468 z"/>
				<path id="XMLID_523_" class="st0" d="M158.3655975341797,149.70002136230468 c0,-0.1 0,-0.30000000000000004 0,-0.4 c-1.8,-0.2 -3.6,-0.4 -6.2,-0.6000000000000001 c1.4,1.1 2.3,1.7000000000000002 3.2,2.4 C156.4655975341797,150.6000213623047 157.3655975341797,150.1000213623047 158.3655975341797,149.70002136230468 z"/>
				<path id="XMLID_522_" class="st0" d="M144.0655975341797,226.7000213623047 c2.5,0.30000000000000004 4.3,0.4 6.7,0.7000000000000001 c-1.3,-1 -2.1,-1.6 -3.1,-2.4 C146.5655975341797,225.50002136230466 145.66559753417968,226.00002136230466 144.0655975341797,226.7000213623047 z"/>
			</g>
		</g>
	</g>
	<g id="svg_3">
		<g class="st4" id="svg_4">
			<path class="st5" d="M229.1655975341797,77.10002136230469 c0,-12.3 9.3,-21.3 21.9,-21.3 c6.1,0 11.6,2 15.3,6.1 l-2.8,2.8 c-3.4,-3.5 -7.6,-5 -12.4,-5 c-10.1,0 -17.7,7.4 -17.7,17.3 c0,9.9 7.6,17.3 17.7,17.3 c4.8,0 9,-1.5 12.4,-5 l2.8,2.8 c-3.7,4.1 -9.2,6.2 -15.4,6.2 C238.5655975341797,98.4000213623047 229.1655975341797,89.4000213623047 229.1655975341797,77.10002136230469 z" id="svg_5"/>
			<path class="st5" d="M303.0655975341797,94.20002136230468 v3.8 h-29.6 v-41.8 h28.7 v3.8 h-24.3 v14.9 H299.5655975341797 v3.8 h-21.6 v15.5 H303.0655975341797 z" id="svg_6"/>
			<path class="st5" d="M346.0655975341797,56.20002136230468 v41.8 h-3.6 l-26.9,-33.9 v33.9 h-4.4 v-41.8 h3.6 l27,33.9 v-33.9 H346.0655975341797 z" id="svg_7"/>
			<path class="st5" d="M365.3655975341797,60.00002136230469 h-14.7 v-3.8 h33.8 v3.8 h-14.7 v38 h-4.4 V60.00002136230469 z" id="svg_8"/>
			<path class="st5" d="M417.7655975341797,98.10002136230469 l-9.6,-13.4 c-1.1,0.1 -2.2,0.2 -3.3,0.2 H393.5655975341797 v13.3 h-4.4 v-41.8 h15.7 c10.6,0 17.1,5.4 17.1,14.3 c0,6.6 -3.5,11.2 -9.6,13.1 l10.2,14.3 H417.7655975341797 zM417.46559753417966,70.60002136230469 c0,-6.7 -4.4,-10.5 -12.8,-10.5 H393.5655975341797 v21 h11.1 C413.0655975341797,81.0000213623047 417.46559753417966,77.10002136230469 417.46559753417966,70.60002136230469 z" id="svg_9"/>
			<path class="st5" d="M459.5655975341797,94.20002136230468 v3.8 h-29.6 v-41.8 h28.7 v3.8 h-24.3 v14.9 h21.6 v3.8 h-21.6 v15.5 H459.5655975341797 z" id="svg_10"/>
			<path class="st5" d="M480.86559753417964,56.20002136230468 h17 c13.4,0 22.4,8.6 22.4,20.9 c0,12.3 -9,20.9 -22.4,20.9 h-17 V56.20002136230468 zM497.6655975341797,94.20002136230468 c11.1,0 18.3,-7.1 18.3,-17.1 s-7.2,-17.1 -18.3,-17.1 h-12.4 v34.2 H497.6655975341797 z" id="svg_11"/>
			<path class="st5" d="M557.3655975341796,94.20002136230468 v3.8 h-29.6 v-41.8 h28.7 v3.8 h-24.3 v14.9 h21.6 v3.8 h-21.6 v15.5 H557.3655975341796 z" id="svg_12"/>
		</g>
		<g class="st4" id="svg_13">
			<g class="st6" id="svg_14">
				<path class="st0" d="M246.96559753417966,186.30002136230468 c13,0 22,8.5 22,20.9 c0,12.3 -9.1,20.9 -22.4,20.9 h-17.4 v-41.8 H246.96559753417966 zM238.6655975341797,220.2000213623047 h8.5 c7,0 12.1,-5.3 12.1,-12.9 c0,-7.7 -5.4,-13 -12.5,-13 h-8.1 V220.2000213623047 z" id="svg_15"/>
				<path class="st0" d="M282.7655975341797,194.1000213623047 v9.1 h20.2 v7.8 h-20.2 v9.3 h23.1 v7.8 h-32.5 v-41.8 h31.9 v7.8 H282.7655975341797 z" id="svg_16"/>
				<path class="st0" d="M344.6655975341797,190.4000213623047 l-3.6,7.8 c-4.4,-2.6 -9.7,-4.3 -13,-4.3 c-3.2,0 -5.3,1.1 -5.3,3.4 c0,7.7 22.3,3.4 22.2,18.5 c0,8.2 -7.1,12.6 -16.4,12.6 c-6.9,0 -13.7,-2.6 -18.5,-6.6 l3.8,-7.7 c4.3,3.8 10.4,6.3 14.8,6.3 c3.9,0 6.2,-1.4 6.2,-4 c0,-7.9 -22.3,-3.3 -22.3,-18.1 c0,-7.6 6.5,-12.4 16.2,-12.4 C334.6655975341797,185.9000213623047 340.46559753417966,187.70002136230468 344.6655975341797,190.4000213623047 z" id="svg_17"/>
				<path class="st0" d="M409.0655975341797,186.30002136230468 v41.8 h-4.2 v-33.5 l-16.4,28.1 h-2.1 l-16.4,-28 v33.3 h-4.2 v-41.8 h3.6 l18.2,31 l18,-31 H409.0655975341797 z" id="svg_18"/>
				<path class="st0" d="M420.3655975341797,186.30002136230468 h4.4 v41.8 h-4.4 V186.30002136230468 z" id="svg_19"/>
				<path class="st0" d="M470.96559753417966,186.30002136230468 v41.8 h-3.6 l-26.9,-33.9 v33.9 h-4.4 v-41.8 h3.6 l27,33.9 v-33.9 H470.96559753417966 z" id="svg_20"/>
				<path class="st0" d="M482.1655975341797,186.30002136230468 h4.4 v41.8 h-4.4 V186.30002136230468 z" id="svg_21"/>
				<path class="st0" d="M541.2655975341797,186.30002136230468 v41.8 h-4.2 v-33.5 L520.5655975341797,222.80002136230468 h-2.1 l-16.4,-28 v33.3 h-4.2 v-41.8 h3.6 l18.2,31 l18,-31 H541.2655975341797 z" id="svg_22"/>
				<path class="st0" d="M582.0655975341797,224.30002136230468 v3.8 h-29.6 v-41.8 h28.7 v3.8 h-24.3 v14.9 H578.5655975341797 v3.8 h-21.6 v15.5 H582.0655975341797 z" id="svg_23"/>
				<path class="st0" d="M586.0655975341797,223.00002136230466 l1.7000000000000002,-3.4 c3,2.9 8.3,5.1 13.8,5.1 c7.8,0 11.2,-3.3 11.2,-7.4 c0,-11.5 -25.8,-4.4 -25.8,-19.9 c0,-6.2 4.8,-11.5 15.4,-11.5 c4.7,0 9.6,1.4 13,3.7 l-1.5,3.5 c-3.6,-2.3 -7.8,-3.5 -11.5,-3.5 c-7.6,0 -11.1,3.4 -11.1,7.6 c0,11.5 25.8,4.5 25.8,19.8 c0,6.2 -4.9,11.4 -15.6,11.4 C595.3655975341796,228.50002136230466 589.1655975341797,226.30002136230468 586.0655975341797,223.00002136230466 z" id="svg_24"/>
			</g>
		</g>
		<g class="st4" id="svg_25">
			<path class="st7" d="M246.96559753417966,123.80002136230468 c13,0 22,8.5 22,20.9 c0,12.3 -9.1,20.9 -22.3,20.9 h-17.4 v-41.8 H246.96559753417966 zM238.6655975341797,157.70002136230468 h8.5 c7,0 12.1,-5.3 12.1,-12.9 c0,-7.7 -5.4,-13 -12.5,-13 h-8.1 V157.70002136230468 z" id="svg_26"/>
			<path class="st7" d="M283.96559753417966,131.6000213623047 v9.1 h20.2 v7.8 h-20.2 v9.3 h23.1 v7.8 H274.5655975341797 v-41.8 h31.9 v7.8 H283.96559753417966 z" id="svg_27"/>
			<path class="st7" d="M332.96559753417966,153.70002136230468 h-0.9 h-8.7 v12 h-9.4 v-41.8 h18.2 c10.9,0 17.2,5.3 17.2,14.5 c0,6.5 -2.7,11.1 -7.8,13.5 l8.9,13.8 H339.5655975341797 L332.96559753417966,153.70002136230468 zM332.0655975341797,145.80002136230468 c5.2,0 8.2,-2.4 8.2,-7.2 c0,-4.7 -3,-7 -8.2,-7 h-8.7 v14.2 H332.0655975341797 z" id="svg_28"/>
			<path class="st7" d="M393.46559753417966,165.6000213623047 v-28.2 l-11.1,24 h-6.2 l-11.1,-24 V165.6000213623047 H356.5655975341797 v-41.8 h10.6 l12.2,25.6 l12.1,-25.6 h10.5 V165.6000213623047 H393.46559753417966 z" id="svg_29"/>
			<path class="st7" d="M418.8655975341797,157.5000213623047 L415.5655975341797,165.6000213623047 h-9.7 l18.2,-41.8 h9.7 l17.9,41.8 H441.5655975341797 l-3.3,-8.1 H418.8655975341797 zM428.5655975341797,133.6000213623047 l-6.6,16.3 h13.2 L428.5655975341797,133.6000213623047 z" id="svg_30"/>
			<path class="st7" d="M469.0655975341797,131.80002136230468 V165.6000213623047 h-9.4 v-33.8 h-12.7 v-8 h35 v8 H469.0655975341797 z" id="svg_31"/>
			<path class="st7" d="M526.0655975341797,144.70002136230468 c0,12.1 -9.7,21.3 -22.5,21.3 s-22.5,-9.2 -22.5,-21.3 c0,-12.2 9.7,-21.2 22.5,-21.2 S526.0655975341797,132.6000213623047 526.0655975341797,144.70002136230468 zM490.76559753417973,144.70002136230468 c0,7.4 5.9,13.1 12.9,13.1 c7,0 12.7,-5.7 12.7,-13.1 c0,-7.3 -5.7,-13 -12.7,-13 C496.6655975341797,131.70002136230468 490.76559753417973,137.4000213623047 490.76559753417973,144.70002136230468 z" id="svg_32"/>
			<path class="st7" d="M558.9655975341797,157.4000213623047 v8.2 h-27.4 v-41.8 h9.4 v33.6 H558.9655975341797 z" id="svg_33"/>
			<path class="st7" d="M605.9655975341797,144.70002136230468 c0,12.1 -9.7,21.3 -22.5,21.3 c-12.8,0 -22.5,-9.2 -22.5,-21.3 c0,-12.2 9.7,-21.2 22.5,-21.2 C596.2655975341797,123.5000213623047 605.9655975341797,132.6000213623047 605.9655975341797,144.70002136230468 zM570.6655975341797,144.70002136230468 c0,7.4 5.9,13.1 12.9,13.1 c7,0 12.7,-5.7 12.7,-13.1 c0,-7.3 -5.7,-13 -12.7,-13 C576.5655975341797,131.70002136230468 570.6655975341797,137.4000213623047 570.6655975341797,144.70002136230468 z" id="svg_34"/>
			<path class="st7" d="M648.7655975341797,144.5000213623047 V160.6000213623047 c-4.4,3.2 -11.2,5.4 -17,5.4 c-12.7,0 -22.3,-9.2 -22.3,-21.3 c0,-12.1 9.8,-21.2 22.8,-21.2 c6.2,0 12.5,2.4 16.8,6.1 l-5.3,6.8 c-3.1,-2.9 -7.4,-4.7 -11.5,-4.7 c-7.4,0 -13.1,5.7 -13.1,13 c0,7.4 5.8,13.1 13.2,13.1 c2.5,0 5.5,-0.9 8.2,-2.3 v-11 H648.7655975341797 z" id="svg_35"/>
			<path class="st7" d="M654.4655975341797,165.6000213623047 v-41.8 h9.4 V165.6000213623047 H654.4655975341797 z" id="svg_36"/>
			<path class="st7" d="M681.9655975341797,131.6000213623047 v9.1 h20.2 v7.8 h-20.2 v9.3 h23.1 v7.8 H672.5655975341797 v-41.8 h31.9 v7.8 H681.9655975341797 z" id="svg_37"/>
		</g>
	</g>
</g></g></svg>